<svg width="27" height="27" viewBox="0 0 27 27" fill="none" xmlns="http://www.w3.org/2000/svg">
<g clip-path="url(#clip0_90_1495)">
<path opacity="0.5" d="M12.375 24.75C19.2097 24.75 24.75 19.2097 24.75 12.375C24.75 5.54029 19.2097 0 12.375 0C5.54029 0 0 5.54029 0 12.375C0 19.2097 5.54029 24.75 12.375 24.75Z" fill="white"/>
<path d="M16.9017 1.51348L15.2682 2.66683C14.4044 3.27444 13.8079 3.69643 13.2882 3.92908V9.37284L15.2063 10.8393L20.2776 8.74047C20.3184 8.17494 20.5077 7.46956 20.7787 6.45358L21.296 4.5206L21.4346 3.97239C22.5672 5.19465 23.4405 6.63368 24.0018 8.20267C24.5631 9.77166 24.8007 11.4381 24.7004 13.1014L22.8318 11.8664C21.9469 11.2823 21.3356 10.8776 20.9297 10.4792L15.7174 12.6374L14.9971 14.9725L18.1899 18.6652C18.7431 18.5625 19.4658 18.5625 20.504 18.5625H23.0681C22.2075 20.054 21.0452 21.3496 19.6555 22.3664C18.2657 23.3833 16.6792 24.099 14.9971 24.4679L15.0875 24.1313L15.8139 21.9471C16.1517 20.936 16.3831 20.2368 16.6653 19.7406L13.5072 16.0875H11.1894L8.31465 19.748C8.59432 20.243 8.82574 20.941 9.1611 21.9471L9.88875 24.1313L10.0236 24.5297C8.2823 24.193 6.63368 23.4859 5.18949 22.4564C3.74531 21.4268 2.5393 20.0989 1.65319 18.5625H4.47097C5.5179 18.5625 6.24679 18.5625 6.80242 18.6677L9.71921 14.954L9.00517 12.6398L3.87202 10.4779C3.46612 10.8764 2.85356 11.2823 1.96999 11.8652L0.0493859 13.1348L0.0221608 13.1534C-0.0863759 11.4704 0.151266 9.78293 0.720412 8.19532C1.28956 6.60772 2.17812 5.15364 3.33124 3.92289L3.50449 4.5206L4.02176 6.45358C4.29277 7.46833 4.48087 8.1737 4.52295 8.738L9.51255 10.8417L11.4331 9.3716V3.90804C10.9208 3.66301 10.333 3.22865 9.48656 2.60371L7.63526 1.23751L7.3791 1.0457C8.94879 0.353716 10.6458 -0.00246507 12.3613 1.28405e-05C14.1519 1.28405e-05 15.8547 0.381163 17.3905 1.06798L16.9017 1.51348Z" fill="black"/>
</g>
<defs>
<clipPath id="clip0_90_1495">
<rect width="27" height="27" fill="white"/>
</clipPath>
</defs>
</svg>
