<svg width="19" height="19" viewBox="0 0 19 19" fill="none" xmlns="http://www.w3.org/2000/svg">
<path d="M17.5846 4.47749C16.9805 4.74475 16.3398 4.92033 15.6838 4.9984C16.375 4.58447 16.8921 3.9334 17.1389 3.16649C16.4897 3.55282 15.778 3.82357 15.037 3.97003C14.5387 3.4369 13.8783 3.08333 13.1584 2.96428C12.4384 2.84523 11.6993 2.96738 11.0559 3.31172C10.4126 3.65607 9.90099 4.20332 9.60073 4.86841C9.30047 5.53349 9.22836 6.27915 9.3956 6.98945C8.07901 6.92357 6.79099 6.58152 5.61519 5.9855C4.43938 5.38949 3.40208 4.55283 2.57064 3.52986C2.27637 4.0353 2.12173 4.60987 2.12256 5.19474C2.12256 6.34265 2.7076 7.35678 3.59506 7.95053C3.0694 7.93395 2.55532 7.79199 2.09564 7.53649V7.57686C2.09562 8.34151 2.36008 9.08263 2.84419 9.67452C3.32829 10.2664 4.00222 10.6726 4.75168 10.8243C4.26373 10.9567 3.75204 10.9761 3.25543 10.8813C3.46675 11.5395 3.87864 12.1151 4.43343 12.5275C4.98822 12.9399 5.65811 13.1684 6.34927 13.1811C5.66238 13.7206 4.87588 14.1193 4.03476 14.3546C3.19363 14.5899 2.31437 14.657 1.44727 14.5522C2.96071 15.5255 4.72247 16.0422 6.52185 16.0406C12.6129 16.0406 15.9427 10.9953 15.9427 6.61974C15.9427 6.47724 15.9395 6.33315 15.9332 6.19144C16.5811 5.72306 17.1403 5.14214 17.5846 4.47749Z" fill="#F8F8F8"/>
</svg>
