<svg width="19" height="19" viewBox="0 0 19 19" fill="none" xmlns="http://www.w3.org/2000/svg">
<path d="M10.314 1.58398C10.8917 1.58177 11.4694 1.58757 12.0469 1.6014L12.2005 1.60694C12.3778 1.61327 12.5528 1.62119 12.7642 1.63069C13.6065 1.67027 14.1813 1.80327 14.6855 1.99882C15.208 2.1999 15.6482 2.47223 16.0884 2.9124C16.4908 3.30792 16.8023 3.78636 17.0012 4.31444C17.1967 4.81873 17.3297 5.39427 17.3693 6.23661C17.3788 6.44719 17.3867 6.62294 17.393 6.80027L17.3978 6.95386C17.4119 7.53113 17.4179 8.10858 17.416 8.68602L17.4168 9.27661V10.3137C17.4188 10.8914 17.4127 11.4691 17.3986 12.0466L17.3938 12.2002C17.3875 12.3776 17.3796 12.5525 17.3701 12.7639C17.3305 13.6062 17.1959 14.181 17.0012 14.6853C16.803 15.2139 16.4914 15.6927 16.0884 16.0881C15.6925 16.4905 15.2138 16.802 14.6855 17.0009C14.1813 17.1964 13.6065 17.3294 12.7642 17.369C12.5528 17.3785 12.3778 17.3864 12.2005 17.3928L12.0469 17.3975C11.4694 17.4116 10.8917 17.4177 10.314 17.4157L9.72338 17.4165H8.68709C8.10938 17.4185 7.53167 17.4124 6.95413 17.3983L6.80055 17.3936C6.61261 17.3868 6.42472 17.3788 6.23688 17.3698C5.39455 17.3302 4.8198 17.1956 4.31471 17.0009C3.78642 16.8025 3.3079 16.4909 2.91267 16.0881C2.50975 15.6925 2.19798 15.2138 1.99909 14.6853C1.80355 14.181 1.67055 13.6062 1.63096 12.7639C1.62215 12.576 1.61423 12.3882 1.60721 12.2002L1.60326 12.0466C1.58866 11.4691 1.58206 10.8914 1.58346 10.3137V8.68602C1.58126 8.10858 1.58706 7.53114 1.60088 6.95386L1.60642 6.80027C1.61276 6.62294 1.62067 6.44719 1.63017 6.23661C1.66976 5.39348 1.80276 4.81952 1.9983 4.31444C2.1973 3.7861 2.50969 3.30779 2.91346 2.91319C3.30842 2.51004 3.78664 2.19798 4.31471 1.99882C4.8198 1.80327 5.39376 1.67027 6.23688 1.63069L6.80055 1.60694L6.95413 1.60298C7.5314 1.58839 8.10885 1.5818 8.6863 1.58319L10.314 1.58398ZM9.50013 5.54232C8.97566 5.5349 8.45494 5.63179 7.96824 5.82737C7.48154 6.02295 7.03856 6.3133 6.66505 6.68157C6.29154 7.04983 5.99495 7.48866 5.79251 7.97254C5.59007 8.45643 5.48582 8.97573 5.48582 9.50025C5.48582 10.0248 5.59007 10.5441 5.79251 11.028C5.99495 11.5118 6.29154 11.9507 6.66505 12.3189C7.03856 12.6872 7.48154 12.9776 7.96824 13.1731C8.45494 13.3687 8.97566 13.4656 9.50013 13.4582C10.5499 13.4582 11.5568 13.0412 12.2991 12.2988C13.0414 11.5565 13.4585 10.5497 13.4585 9.49986C13.4585 8.45004 13.0414 7.44322 12.2991 6.70089C11.5568 5.95856 10.5499 5.54232 9.50013 5.54232ZM9.50013 7.12565C9.81562 7.11984 10.1291 7.17695 10.4223 7.29365C10.7154 7.41035 10.9824 7.58429 11.2076 7.80533C11.4328 8.02637 11.6116 8.29006 11.7338 8.581C11.8559 8.87195 11.9188 9.18431 11.9189 9.49985C11.9189 9.81539 11.8561 10.1278 11.7341 10.4188C11.612 10.7097 11.4333 10.9735 11.2081 11.1946C10.983 11.4157 10.7161 11.5898 10.423 11.7066C10.1299 11.8233 9.81641 11.8806 9.50092 11.8749C8.87103 11.8749 8.26694 11.6246 7.82154 11.1792C7.37615 10.7338 7.12592 10.1297 7.12592 9.49986C7.12592 8.86997 7.37615 8.26588 7.82154 7.82048C8.26694 7.37508 8.87103 7.12486 9.50092 7.12486L9.50013 7.12565ZM13.6564 4.35482C13.401 4.36504 13.1594 4.47368 12.9824 4.658C12.8053 4.84232 12.7064 5.08801 12.7064 5.34361C12.7064 5.59921 12.8053 5.8449 12.9824 6.02921C13.1594 6.21353 13.401 6.32218 13.6564 6.3324C13.9188 6.3324 14.1705 6.22814 14.3561 6.04256C14.5417 5.85697 14.646 5.60527 14.646 5.34282C14.646 5.08036 14.5417 4.82866 14.3561 4.64307C14.1705 4.45749 13.9188 4.35323 13.6564 4.35323V4.35482Z" fill="white"/>
</svg>
